<?xml version="1.0" encoding="UTF-8"?>
<svg xmlns="http://www.w3.org/2000/svg" xmlns:xlink="http://www.w3.org/1999/xlink" width="287px" height="284px" viewBox="0 0 287 284">
  <!-- Generator: Sketch 51.2 (57519) - http://www.bohemiancoding.com/sketch -->
  <title>Group 29</title>
  <desc>Created with Sketch.</desc>
  <defs>
    <polygon id="path-1" points="0.3451 0.958258593 102.4971 0.958258593 102.4971 93 0.3451 93"></polygon>
    <polygon id="path-3" points="0 0.475197525 91.8948 0.475197525 91.8948 92.6698663 0 92.6698663"></polygon>
    <polygon id="path-5" points="0 0.5243 92.0417782 0.5243 92.0417782 102.6773 0 102.6773"></polygon>
    <polygon id="path-7" points="0.257221837 0.5026 92.299 0.5026 92.299 102.6556 0.257221837 102.6556"></polygon>
  </defs>
  <g id="home" stroke="none" stroke-width="1" fill="none" fill-rule="evenodd">
    <g id="Desktop" transform="translate(-125.000000, -2217.000000)">
      <g id="Group-29" transform="translate(125.000000, 2217.000000)">
        <path d="M140.3722,249.7708 C140.6252,247.7198 140.1122,245.7098 140.3722,243.9078 C140.5302,242.8128 140.3462,242.0128 140.4082,240.9128 C140.7152,235.5708 140.1322,232.1828 139.1442,227.1758 C138.6152,224.4898 137.4222,221.1728 136.4102,218.8648 C135.0132,215.6748 133.0642,212.9078 130.7182,210.3778 C128.6972,208.2008 126.6872,206.0148 124.7002,203.8088 C122.1432,200.9678 119.2092,198.6438 115.6912,197.0968 C114.0292,196.3658 112.4062,195.5268 110.7002,194.9208 C108.6722,194.2008 106.6082,193.4138 104.4952,193.1258 C100.3422,192.5628 96.1432,192.3378 91.9682,191.9248 C91.7392,195.6508 90.9922,199.3688 89.6732,203.0868 C89.3022,204.1308 88.7372,205.1168 88.4342,206.1768 C87.0162,211.1108 84.7992,215.7028 82.1482,220.0968 C80.8632,222.2278 79.1922,224.0588 77.1862,225.6448 C74.1982,228.0078 70.8562,229.6418 67.2272,230.8398 C64.7062,231.6718 62.2212,232.6008 59.7402,233.5398 C56.1492,234.8978 52.4622,235.6458 48.6192,235.4978 C48.2482,238.4188 48.1542,241.3718 48.5552,244.3758 C49.5752,252.0138 50.8022,259.5878 55.7312,265.9238 C56.2022,266.5288 71.8782,279.1378 80.6832,281.9628 C87.3102,283.2378 94.3092,283.7078 101.4992,283.8198 C103.3912,283.4068 105.1742,282.7878 106.9222,281.8078 C113.5092,278.1168 119.6452,273.9138 124.9192,268.4318 C126.4862,266.8028 127.7302,264.9588 129.2002,263.3498 C129.3302,263.2068 129.4132,263.1988 128.2802,263.0678 C126.7512,262.8898 123.5032,262.4468 119.4022,260.3828 C119.1592,260.2608 119.0622,260.1708 119.5632,260.2078 C122.0762,260.3958 131.9792,259.0538 132.3782,258.3098 C133.6932,255.8628 134.7592,253.2938 135.5602,250.5918 C135.6422,250.3198 140.3382,250.0538 140.3722,249.7708 M121.0882,234.3638 C121.0102,234.4238 120.1812,235.2438 119.5162,235.2438 C119.0742,235.2438 118.1012,234.5818 117.9442,234.3638 C117.9442,234.3638 117.5792,233.1938 117.7002,232.9138 C117.8072,232.6688 118.0702,232.2178 118.2202,232.0538 C118.3682,231.8908 119.2622,231.5718 119.2622,231.5718 C119.2622,231.5718 120.2422,231.7008 120.6292,231.9288 C121.0182,232.1568 121.2852,232.8758 121.3312,233.0718 C121.3762,233.2668 121.1652,234.3028 121.0882,234.3638" id="Fill-1" fill="#FC40B6"></path>
        <g id="Group-5" transform="translate(133.000000, 190.820000)">
          <mask id="mask-2" fill="white">
            <use xlink:href="#path-1"></use>
          </mask>
          <g id="Clip-4"></g>
          <path d="M81.7491,39.0387 C79.1081,38.2307 77.1981,36.3097 75.0481,34.7347 C71.1421,31.8717 67.8501,28.3897 65.0371,24.5077 C63.5201,22.4107 62.3781,19.9797 61.3991,17.5647 C59.2881,12.3587 58.3331,6.9307 58.9021,1.2797 C58.9101,1.1977 58.9161,1.1147 58.9251,1.0327 C53.7701,0.7187 48.5991,1.4027 43.3901,2.9967 C36.1101,5.2257 29.5701,8.8427 23.2801,13.1067 C21.2901,14.4557 19.8371,14.9017 18.4281,16.8187 C17.4331,18.1707 16.0811,19.3937 15.0041,21.7847 C15.0031,21.7867 15.0021,21.7887 15.0011,21.7897 C14.8111,22.1087 14.6961,22.4597 14.6081,22.8227 C12.1531,32.9427 11.8601,38.8717 10.7301,46.9357 C11.0781,52.8447 11.8201,58.7197 13.0591,64.5327 L7.8821,67.9757 L0.3451,71.2077 L7.9861,71.4407 L12.1751,70.8977 L15.4781,70.0947 C19.0001,75.9287 24.3351,79.9507 29.7871,83.8517 C35.1541,87.6917 41.3611,89.3267 47.5971,90.7957 C51.2121,91.6477 54.9031,92.1647 58.5591,92.8457 C61.2721,93.3507 63.8471,92.4957 66.4761,92.0717 C71.2541,91.3007 75.7701,89.6747 80.0421,87.4587 C82.3511,86.2627 84.4761,84.5837 86.4491,82.8457 C90.7061,79.0947 94.0381,74.5987 96.1191,69.1847 C97.6881,65.1057 99.4521,61.1007 100.8801,56.9727 C101.5941,54.9127 101.8391,52.6637 102.1281,50.4777 C102.3721,48.6407 102.3701,46.7677 102.4821,44.9097 C102.4921,44.7327 102.4911,44.5577 102.4971,44.3807 C99.1051,43.9497 95.7561,43.1457 92.4211,42.2927 C88.8221,41.3717 85.3071,40.1267 81.7491,39.0387" id="Fill-3" fill="#1540F5" mask="url(#mask-2)"></path>
        </g>
        <path d="M145.9268,34.0491 C145.6738,36.1001 146.1868,38.1101 145.9268,39.9121 C145.7688,41.0071 145.9538,41.8071 145.8908,42.9071 C145.5848,48.2491 146.1678,51.6371 147.1558,56.6441 C147.6838,59.3301 148.8778,62.6471 149.8888,64.9551 C151.2868,68.1441 153.2348,70.9121 155.5818,73.4421 C157.6018,75.6191 159.6128,77.8051 161.5988,80.0111 C164.1558,82.8521 167.0908,85.1761 170.6078,86.7231 C172.2698,87.4541 173.8928,88.2931 175.5988,88.8991 C177.6278,89.6191 179.6918,90.4061 181.8038,90.6931 C185.9578,91.2561 190.1558,91.4821 194.3318,91.8951 C194.5598,88.1691 195.3068,84.4511 196.6268,80.7331 C196.9978,79.6891 197.5618,78.7031 197.8658,77.6431 C199.2838,72.7091 201.5008,68.1171 204.1508,63.7231 C205.4358,61.5921 207.1068,59.7611 209.1138,58.1751 C212.1008,55.8121 215.4438,54.1781 219.0728,52.9801 C221.5928,52.1481 224.0778,51.2181 226.5588,50.2801 C230.1498,48.9221 233.8368,48.1741 237.6798,48.3221 C238.0508,45.4011 238.1448,42.4481 237.7438,39.4431 C236.7238,31.8061 235.4968,24.2321 230.5688,17.8961 C230.0978,17.2911 214.4208,4.6821 205.6168,1.8571 C198.9898,0.5821 191.9908,0.1121 184.7998,0.0001 C182.9088,0.4131 181.1268,1.0321 179.3778,2.0121 C172.7918,5.7031 166.6548,9.9061 161.3798,15.3881 C159.8128,17.0161 158.5688,18.8601 157.0988,20.4701 C156.9688,20.6131 156.8858,20.6201 158.0188,20.7521 C159.5478,20.9301 162.7958,21.3731 166.8968,23.4371 C167.1408,23.5591 167.2388,23.6491 166.7368,23.6121 C164.2238,23.4241 154.3208,24.7661 153.9208,25.5101 C152.6058,27.9571 151.5408,30.5261 150.7388,33.2281 C150.6578,33.5001 145.9618,33.7661 145.9268,34.0491 M165.2118,49.4561 C165.2898,49.3961 166.1188,48.5761 166.7838,48.5761 C167.2248,48.5761 168.1988,49.2381 168.3548,49.4561 C168.3548,49.4561 168.7198,50.6261 168.5988,50.9061 C168.4928,51.1511 168.2288,51.6021 168.0798,51.7661 C167.9308,51.9291 167.0378,52.2481 167.0378,52.2481 C167.0378,52.2481 166.0568,52.1191 165.6698,51.8911 C165.2818,51.6631 165.0138,50.9431 164.9678,50.7481 C164.9228,50.5531 165.1338,49.5171 165.2118,49.4561" id="Fill-6" fill="#FF8F12"></path>
        <path d="M69.0709,53.9612 C71.7119,54.7692 73.6219,56.6902 75.7719,58.2652 C79.6789,61.1282 82.9709,64.6112 85.7819,68.4932 C87.3009,70.5892 88.4419,73.0202 89.4209,75.4352 C91.5309,80.6412 92.4869,86.0702 91.9179,91.7202 C91.9099,91.8022 91.9039,91.8852 91.8949,91.9672 C97.0509,92.2832 102.2219,91.5972 107.4309,90.0032 C114.7099,87.7742 121.2499,84.1582 127.5399,79.8932 C129.5289,78.5442 130.9829,78.0982 132.3929,76.1812 C133.3879,74.8292 134.7379,73.6062 135.8159,71.2142 C135.8169,71.2132 135.8179,71.2112 135.8189,71.2102 C136.0089,70.8912 136.1239,70.5402 136.2119,70.1772 C138.6669,60.0572 138.9599,54.1282 140.0899,46.0642 C139.7409,40.1562 138.9999,34.2812 137.7619,28.4672 L142.9379,25.0242 L150.4759,21.7922 L142.8339,21.5592 L138.6449,22.1022 L135.3439,22.9062 C131.8199,17.0722 126.4839,13.0492 121.0319,9.1482 C115.6659,5.3082 109.4589,3.6732 103.2239,2.2042 C99.6079,1.3522 95.9169,0.8352 92.2619,0.1552 C89.5479,-0.3498 86.9739,0.5042 84.3449,0.9282 C79.5659,1.7002 75.0499,3.3262 70.7769,5.5412 C68.4699,6.7382 66.3449,8.4162 64.3709,10.1552 C60.1139,13.9062 56.7819,18.4022 54.7009,23.8152 C53.1319,27.8942 51.3679,31.8992 49.9399,36.0282 C49.2269,38.0872 48.9809,40.3362 48.6919,42.5222 C48.4479,44.3602 48.4499,46.2332 48.3379,48.0902 C48.3279,48.2672 48.3299,48.4432 48.3229,48.6192 C51.7149,49.0502 55.0639,49.8542 58.3989,50.7072 C61.9979,51.6282 65.5139,52.8732 69.0709,53.9612" id="Fill-8" fill="#2ED03C"></path>
        <g id="Group-12" transform="translate(0.000000, 47.820000)">
          <mask id="mask-4" fill="white">
            <use xlink:href="#path-3"></use>
          </mask>
          <g id="Clip-11"></g>
          <path d="M15.3878,77.0992 C17.0168,78.6662 18.8598,79.9102 20.4708,81.3802 C20.6128,81.5112 20.6208,81.5942 20.7528,80.4602 C20.9298,78.9312 21.3728,75.6842 23.4368,71.5822 C23.5598,71.3392 23.6488,71.2422 23.6118,71.7442 C23.4238,74.2562 24.7658,84.1592 25.5098,84.5592 C27.9568,85.8722 30.5268,86.9382 33.2278,87.7412 C33.5008,87.8222 33.7658,92.5172 34.0488,92.5522 C36.0998,92.8052 38.1098,92.2922 39.9118,92.5522 C41.0078,92.7092 41.8078,92.5252 42.9078,92.5882 C48.2498,92.8942 51.6368,92.3112 56.6438,91.3252 C59.3298,90.7962 62.6468,89.6022 64.9548,88.5902 C68.1448,87.1932 70.9118,85.2442 73.4418,82.8972 C75.6188,80.8772 77.8048,78.8682 80.0118,76.8812 C82.8528,74.3232 85.1758,71.3892 86.7238,67.8712 C87.4538,66.2102 88.2938,64.5872 88.8988,62.8812 C89.6188,60.8522 90.4068,58.7882 90.6938,56.6762 C91.2568,52.5222 91.4818,48.3232 91.8948,44.1472 C88.1688,43.9202 84.4508,43.1732 80.7328,41.8522 C79.6888,41.4822 78.7028,40.9182 77.6438,40.6132 C72.7088,39.1952 68.1168,36.9782 63.7228,34.3292 C61.5918,33.0432 59.7608,31.3722 58.1748,29.3672 C55.8128,26.3782 54.1778,23.0372 52.9798,19.4072 C52.1478,16.8872 51.2188,14.4012 50.2808,11.9202 C48.9218,8.3302 48.1738,4.6432 48.3218,0.7992 C45.4008,0.4292 42.4478,0.3342 39.4428,0.7362 C31.8058,1.7562 24.2318,2.9822 17.8958,7.9112 C17.2908,8.3822 4.6828,24.0582 1.8568,32.8622 C0.5818,39.4912 0.1118,46.4882 -0.0002,53.6792 C0.4128,55.5702 1.0318,57.3532 2.0118,59.1022 C5.7028,65.6882 9.9058,71.8252 15.3878,77.0992 M49.4568,70.1252 C49.4568,70.1252 50.6258,69.7602 50.9058,69.8802 C51.1518,69.9862 51.6028,70.2502 51.7658,70.3992 C51.9288,70.5482 52.2478,71.4422 52.2478,71.4422 C52.2478,71.4422 52.1188,72.4222 51.8908,72.8102 C51.6638,73.1972 50.9438,73.4652 50.7488,73.5112 C50.5538,73.5562 49.5168,73.3452 49.4568,73.2672 C49.3958,73.1892 48.5758,72.3612 48.5758,71.6962 C48.5758,71.2542 49.2378,70.2802 49.4568,70.1252" id="Fill-10" fill="#1540F5" mask="url(#mask-4)"></path>
        </g>
        <path d="M50.2804,59.7405 C51.2184,62.2215 52.1484,64.7065 52.9804,67.2275 C54.1784,70.8565 55.8124,74.1985 58.1754,77.1865 C59.7614,79.1925 61.5924,80.8635 63.7234,82.1485 C68.1174,84.7985 72.7094,87.0155 77.6434,88.4335 C78.7034,88.7375 79.6884,89.3015 80.7334,89.6725 C84.4514,90.9925 88.1694,91.7395 91.8954,91.9675 C91.9034,91.8855 91.9094,91.8025 91.9184,91.7195 C92.4864,86.0695 91.5314,80.6415 89.4214,75.4345 C88.4414,73.0205 87.3014,70.5895 85.7824,68.4925 C82.9704,64.6115 79.6784,61.1275 75.7714,58.2655 C73.6214,56.6905 71.7114,54.7695 69.0704,53.9615 C65.5134,52.8735 61.9974,51.6285 58.3984,50.7075 C55.0634,49.8545 51.7144,49.0495 48.3224,48.6195 C48.1744,52.4625 48.9224,56.1495 50.2804,59.7405" id="Fill-13" fill="#000000"></path>
        <g id="Group-17" transform="translate(0.000000, 132.820000)">
          <mask id="mask-6" fill="white">
            <use xlink:href="#path-5"></use>
          </mask>
          <g id="Clip-16"></g>
          <path d="M53.961,81.9293 C54.769,79.2883 56.69,77.3783 58.265,75.2283 C61.128,71.3213 64.611,68.0293 68.493,65.2173 C70.589,63.7003 73.02,62.5583 75.434,61.5793 C80.641,59.4683 86.07,58.5133 91.72,59.0823 C91.802,59.0903 91.885,59.0963 91.967,59.1053 C92.282,53.9503 91.597,48.7783 90.003,43.5703 C87.774,36.2903 84.158,29.7503 79.893,23.4603 C78.544,21.4703 78.098,20.0173 76.181,18.6073 C74.829,17.6123 73.606,16.2613 71.214,15.1843 C71.213,15.1833 71.211,15.1823 71.209,15.1813 C70.891,14.9913 70.54,14.8763 70.177,14.7883 C60.056,12.3333 54.128,12.0403 46.064,10.9103 C40.156,11.2583 34.281,12.0003 28.467,13.2383 L25.024,8.0623 L21.792,0.5243 L21.559,8.1663 L22.101,12.3553 L22.906,15.6583 C17.072,19.1803 13.049,24.5153 9.148,29.9673 C5.308,35.3343 3.673,41.5413 2.204,47.7763 C1.352,51.3923 0.834,55.0833 0.155,58.7383 C-0.35,61.4523 0.503,64.0263 0.928,66.6563 C1.7,71.4343 3.326,75.9503 5.541,80.2233 C6.738,82.5303 8.416,84.6553 10.155,86.6293 C13.906,90.8863 18.402,94.2183 23.815,96.2993 C27.894,97.8683 31.899,99.6323 36.027,101.0603 C38.086,101.7733 40.336,102.0193 42.522,102.3083 C44.36,102.5523 46.233,102.5503 48.09,102.6623 C48.267,102.6723 48.442,102.6703 48.619,102.6773 C49.05,99.2853 49.854,95.9363 50.707,92.6013 C51.628,89.0023 52.873,85.4863 53.961,81.9293" id="Fill-15" fill="#FF8F12" mask="url(#mask-6)"></path>
        </g>
        <path d="M59.7403,233.5393 C62.2213,232.6023 64.7063,231.6713 67.2273,230.8393 C70.8563,229.6423 74.1983,228.0073 77.1863,225.6443 C79.1923,224.0593 80.8633,222.2273 82.1483,220.0973 C84.7993,215.7023 87.0153,211.1103 88.4333,206.1773 C88.7373,205.1163 89.3023,204.1313 89.6733,203.0863 C90.9923,199.3683 91.7393,195.6513 91.9683,191.9243 C91.8853,191.9163 91.8033,191.9103 91.7193,191.9023 C86.0693,191.3333 80.6413,192.2883 75.4343,194.3993 C73.0203,195.3783 70.5893,196.5183 68.4923,198.0373 C64.6113,200.8493 61.1273,204.1423 58.2653,208.0483 C56.6903,210.1983 54.7683,212.1083 53.9613,214.7493 C52.8723,218.3073 51.6273,221.8223 50.7073,225.4213 C49.8543,228.7563 49.0493,232.1053 48.6193,235.4973 C52.4623,235.6453 56.1493,234.8973 59.7403,233.5393" id="Fill-18" fill="#000000"></path>
        <path d="M281.8077,176.8977 C278.1167,170.3117 273.9137,164.1747 268.4317,158.9007 C266.8027,157.3347 264.9597,156.0887 263.3487,154.6197 C263.2067,154.4897 263.1987,154.4067 263.0677,155.5407 C262.8897,157.0677 262.4467,160.3157 260.3827,164.4177 C260.2597,164.6617 260.1707,164.7577 260.2077,164.2557 C260.3957,161.7447 259.0537,151.8407 258.3097,151.4407 C255.8627,150.1267 253.2937,149.0617 250.5917,148.2587 C250.3197,148.1777 250.0537,143.4817 249.7707,143.4477 C247.7197,143.1957 245.7097,143.7077 243.9077,143.4477 C242.8127,143.2907 242.0117,143.4737 240.9117,143.4117 C235.5707,143.1057 232.1827,143.6887 227.1757,144.6747 C224.4897,145.2047 221.1727,146.3977 218.8647,147.4107 C215.6747,148.8067 212.9077,150.7557 210.3777,153.1027 C208.2007,155.1227 206.0147,157.1317 203.8077,159.1197 C200.9677,161.6767 198.6437,164.6117 197.0967,168.1287 C196.3657,169.7907 195.5267,171.4137 194.9207,173.1197 C194.2007,175.1477 193.4137,177.2117 193.1267,179.3247 C192.5627,183.4777 192.3377,187.6767 191.9247,191.8527 C195.6507,192.0807 199.3697,192.8277 203.0867,194.1467 C204.1307,194.5177 205.1167,195.0827 206.1757,195.3867 C211.1107,196.8037 215.7037,199.0207 220.0967,201.6707 C222.2277,202.9577 224.0587,204.6277 225.6447,206.6327 C228.0077,209.6227 229.6417,212.9627 230.8397,216.5927 C231.6717,219.1137 232.6007,221.5977 233.5397,224.0797 C234.8977,227.6697 235.6457,231.3567 235.4977,235.2007 C238.4187,235.5717 241.3717,235.6667 244.3767,235.2637 C252.0137,234.2447 259.5877,233.0177 265.9237,228.0877 C266.5287,227.6187 279.1367,211.9417 281.9627,203.1377 C283.2377,196.5087 283.7077,189.5117 283.8197,182.3217 C283.4067,180.4287 282.7877,178.6467 281.8077,176.8977 M234.3637,165.8757 C234.3637,165.8757 233.1937,166.2407 232.9137,166.1207 C232.6687,166.0137 232.2177,165.7507 232.0537,165.6007 C231.8907,165.4527 231.5717,164.5577 231.5717,164.5577 C231.5717,164.5577 231.7007,163.5777 231.9287,163.1897 C232.1567,162.8027 232.8757,162.5347 233.0717,162.4897 C233.2667,162.4427 234.3027,162.6557 234.3637,162.7327 C234.4237,162.8107 235.2447,163.6387 235.2447,164.3037 C235.2447,164.7457 234.5817,165.7197 234.3637,165.8757" id="Fill-20" fill="#2ED03C"></path>
        <path d="M233.5401,224.0794 C232.6021,221.5994 231.6721,219.1134 230.8401,216.5934 C229.6421,212.9634 228.3391,209.3274 225.6441,206.6344 C220.3481,201.3364 222.2271,202.9564 220.0971,201.6714 C215.7021,199.0214 211.1101,196.8054 206.1771,195.3874 C205.1161,195.0824 204.1311,194.5184 203.0871,194.1474 C199.3681,192.8274 195.6501,192.0804 191.9251,191.8524 C191.9171,191.9354 191.9101,192.0174 191.9021,192.1004 C191.3341,197.7504 192.2891,203.1794 194.3991,208.3864 C195.3791,210.8004 196.5191,213.2304 198.0371,215.3274 C200.8491,219.2084 204.1421,222.6924 208.0491,225.5554 C210.1981,227.1294 212.1081,229.0514 214.7501,229.8584 C218.3071,230.9464 221.8221,232.1914 225.4221,233.1124 C228.7571,233.9664 232.1051,234.7704 235.4981,235.2004 C235.6451,231.3574 234.8971,227.6704 233.5401,224.0794" id="Fill-22" fill="#000000"></path>
        <g id="Group-26" transform="translate(194.000000, 47.820000)">
          <mask id="mask-8" fill="white">
            <use xlink:href="#path-7"></use>
          </mask>
          <g id="Clip-25"></g>
          <path d="M38.338,21.2506 C37.53,23.8916 35.609,25.8016 34.034,27.9516 C31.171,31.8586 27.689,35.1506 23.807,37.9626 C21.71,39.4806 19.279,40.6216 16.865,41.6006 C11.658,43.7116 6.23,44.6666 0.579,44.0976 C0.497,44.0896 0.414,44.0826 0.332,44.0746 C0.017,49.2306 0.702,54.4016 2.296,59.6096 C4.525,66.8896 8.142,73.4296 12.406,79.7196 C13.755,81.7096 14.201,83.1626 16.118,84.5726 C17.471,85.5676 18.693,86.9186 21.085,87.9956 C21.086,87.9966 21.088,87.9976 21.09,87.9986 C21.408,88.1886 21.76,88.3036 22.122,88.3926 C32.243,90.8466 38.171,91.1406 46.235,92.2706 C52.144,91.9216 58.019,91.1796 63.832,89.9416 L67.275,95.1176 L70.507,102.6556 L70.74,95.0136 L70.197,90.8246 L69.394,87.5226 C75.228,83.9996 79.25,78.6646 83.151,73.2126 C86.991,67.8456 88.626,61.6386 90.096,55.4036 C90.947,51.7876 91.464,48.0966 92.145,44.4416 C92.65,41.7276 91.795,39.1536 91.371,36.5236 C90.6,31.7456 88.974,27.2296 86.758,22.9566 C85.562,20.6496 83.883,18.5246 82.145,16.5506 C78.394,12.2936 73.898,8.9616 68.484,6.8806 C64.405,5.3116 60.4,3.5476 56.272,2.1196 C54.213,1.4066 51.963,1.1606 49.777,0.8716 C47.94,0.6276 46.067,0.6296 44.209,0.5176 C44.032,0.5076 43.858,0.5086 43.681,0.5026 C43.249,3.8946 42.445,7.2436 41.592,10.5786 C40.671,14.1776 39.426,17.6936 38.338,21.2506" id="Fill-24" fill="#FC40B6" mask="url(#mask-8)"></path>
        </g>
        <path d="M226.5587,50.2806 C224.0787,51.2186 221.5927,52.1486 219.0727,52.9806 C215.4437,54.1786 212.1007,55.8126 209.1137,58.1756 C207.1077,59.7616 205.4357,61.5926 204.1517,63.7236 C201.5007,68.1176 199.2847,72.7096 197.8667,77.6436 C197.5627,78.7036 196.9977,79.6886 196.6267,80.7336 C195.3067,84.4516 194.5597,88.1696 194.3317,91.8956 C194.4137,91.9036 194.4967,91.9096 194.5797,91.9176 C200.2307,92.4866 205.6587,91.5316 210.8657,89.4206 C213.2797,88.4416 215.7097,87.3016 217.8067,85.7826 C221.6877,82.9716 225.1717,79.6786 228.0347,75.7716 C229.6097,73.6216 231.5307,71.7116 232.3377,69.0706 C233.4257,65.5136 234.6717,61.9976 235.5917,58.3986 C236.4457,55.0636 237.2497,51.7146 237.6797,48.3226 C233.8367,48.1746 230.1507,48.9226 226.5587,50.2806" id="Fill-27" fill="#000000"></path>
      </g>
    </g>
  </g>
</svg>
