<?xml version="1.0" encoding="UTF-8"?>
<svg xmlns="http://www.w3.org/2000/svg" xmlns:xlink="http://www.w3.org/1999/xlink" width="195px" height="189px" viewBox="0 0 195 189">
  <!-- Generator: Sketch 51.2 (57519) - http://www.bohemiancoding.com/sketch -->
  <title>Group 4</title>
  <desc>Created with Sketch.</desc>
  <defs>
    <polygon id="path-1" points="0.732083325 0.212361024 19.3234345 0.212361024 19.3234345 14.240805 0.732083325 14.240805"></polygon>
    <polygon id="path-3" points="0.732991724 0.184769748 12.5300952 0.184769748 12.5300952 18.4033613 0.732991724 18.4033613"></polygon>
  </defs>
  <g id="symbols" stroke="none" stroke-width="1" fill="none" fill-rule="evenodd">
    <g id="footer" transform="translate(-313.000000, -921.000000)">
      <g id="Group" transform="translate(20.000000, 59.000000)">
        <g id="Group-4" transform="translate(293.000000, 862.000000)">
          <polygon id="Fill-1" fill="#000000" points="126 17.4975259 128.035584 18.495839 131.717115 10.7208727 138.837411 14.2205353 135.157094 21.9992128 137.191465 23 145 6.50247413 142.964416 5.50044984 139.774484 12.239991 132.652974 8.74032839 135.842906 2.00078722 133.807321 1"></polygon>
          <polygon id="Fill-2" fill="#000000" points="162 18.3082835 160.666425 20.0517506 153.540738 14.1913464 150.349339 18.3621406 156.474844 23.3996584 155.14127 25.1431255 149.016972 20.1056077 145.094764 25.2320524 152.419762 31.2565329 151.086187 33 142 25.5263877 153.114332 11"></polygon>
          <polygon id="Fill-3" fill="#000000" points="156 38.1278558 170.542714 27 172 28.7553801 159.202261 38.5474109 165.115578 45.6653807 163.371859 47"></polygon>
          <g id="Group-28" transform="translate(18.000000, 43.000000)">
            <path d="M164.050561,12.1232756 C165.852658,11.2583176 166.293361,9.83880504 165.427913,8.03772941 L163.46132,3.94359496 L158.031706,6.54951092 L159.998299,10.6436454 C160.863748,12.444721 162.248465,12.9882336 164.050561,12.1232756 Z M156.066341,7.49298992 L149.045775,10.8632588 L148.056341,8.80453613 L164.438479,0.942620168 L167.415375,7.13964538 C168.932672,10.2988891 167.928506,12.8814941 165.073141,14.2519311 C162.217775,15.6211412 159.572327,14.7905361 158.05503,11.6325193 L156.066341,7.49298992 Z" id="Fill-4" fill="#000000"></path>
            <g id="Group-8" transform="translate(157.358621, 41.487395)">
              <mask id="mask-2" fill="white">
                <use xlink:href="#path-1"></use>
              </mask>
              <g id="Clip-7"></g>
              <path d="M3.36162207,12.0937462 C1.54602207,11.2545529 0.724766897,9.43507395 0.732132414,7.51498992 C0.750546207,3.57053613 3.77777379,0.184317647 10.0617876,0.212536134 C16.3445738,0.240754622 19.3398841,3.65273782 19.3239255,7.75300672 C19.3055117,11.3343008 16.9866014,13.4519143 13.76296,14.240805 L13.1246152,12.085158 C15.7749738,11.2925866 17.1314566,10.0264353 17.1412772,7.7431916 C17.1547807,4.65510756 15.00896,2.59638487 10.0507393,2.57307395 C5.09251862,2.55221681 2.92705655,4.59253613 2.9135531,7.67939328 C2.90250483,10.1712084 4.68864276,11.5281496 7.90737379,11.7759815 L7.92456,7.7027042 L10.1047531,7.71251933 L10.0765186,14.1475613 L0.912587586,14.1070739 L0.919953103,12.2127546 L3.36162207,12.0937462 Z" id="Fill-6" fill="#000000" mask="url(#mask-2)"></path>
            </g>
            <path d="M166.104068,63.922358 C161.100426,62.7396353 158.713999,64.2560723 158.098978,66.8595345 C157.485185,69.4605429 158.939874,71.8824252 163.943516,73.063921 C168.94593,74.2454168 171.332357,72.7302067 171.947378,70.1279714 C172.562399,67.526963 171.107709,65.1038538 166.104068,63.922358 M163.399695,75.3618874 C157.334192,73.9301059 155.069295,70.1954504 155.976481,66.3565092 C156.883668,62.5175681 160.582385,60.1926101 166.646661,61.6231647 C172.712164,63.0561731 174.978288,66.7908286 174.069874,70.6297697 C173.162688,74.4687109 169.465199,76.7936689 163.399695,75.3618874" id="Fill-9" fill="#000000"></path>
            <path d="M160.338954,83.1104387 C155.724458,80.8480521 153.060596,81.7988924 151.883341,84.1974639 C150.707313,86.5984891 151.587492,89.2816992 156.201989,91.5453126 C160.817713,93.8064723 163.481575,92.8556319 164.65883,90.4558336 C165.834858,88.0560353 164.954679,85.3715983 160.338954,83.1104387 M155.162223,93.6653798 C149.568113,90.923279 148.188306,86.778842 149.925341,83.2380353 C151.662375,79.6972286 155.78461,78.2494975 161.37872,80.9891445 C166.974058,83.7312454 168.35141,87.8756824 166.61683,91.4164891 C164.879796,94.9572958 160.757561,96.4050269 155.162223,93.6653798" id="Fill-11" fill="#000000"></path>
            <path d="M155.900985,104.687644 L145.079812,96.1092235 L143.789619,97.7360807 C141.546819,100.562837 141.565233,103.458299 145.552433,106.619997 C149.538406,109.77924 152.366764,109.14003 154.609564,106.314501 L155.900985,104.687644 Z M156.174737,107.851795 C153.237123,111.553324 148.858323,112.35203 144.037592,108.530266 C139.214406,104.709728 138.997123,100.264703 141.934737,96.5644 L144.790102,92.9659294 L159.030102,104.253324 L156.174737,107.851795 Z" id="Fill-13" fill="#000000"></path>
            <polygon id="Fill-15" fill="#000000" points="118.099923 117.558096 118.953095 119.335861 114.997812 121.233861 121.155385 134.053642 125.111895 132.156869 125.965068 133.934634 115.993385 138.718281 115.138985 136.940516 119.096723 135.042516 112.937923 122.221508 108.981412 124.119508 108.12824 122.341743"></polygon>
            <path d="M103.316225,140.623397 L100.270583,127.157044 L98.242611,127.614674 C94.7231214,128.412153 92.9197972,130.680674 94.0430386,135.64222 C95.1650524,140.602539 97.7687628,141.877279 101.290708,141.081027 L103.316225,140.623397 Z M101.54359,143.258758 C96.9327766,144.300388 93.0192317,142.180321 91.6615214,136.180825 C90.303811,130.181329 92.9247076,126.584086 97.5342938,125.540002 L102.016211,124.527817 L106.025508,142.245346 L101.54359,143.258758 Z" id="Fill-17" fill="#000000"></path>
            <g id="Group-21" transform="translate(71.427586, 127.596639)">
              <mask id="mask-4" fill="white">
                <use xlink:href="#path-3"></use>
              </mask>
              <g id="Clip-20"></g>
              <polygon id="Fill-19" fill="#000000" mask="url(#mask-4)" points="0.918357241 18.3488874 0.928177931 16.1699294 10.1694469 16.2140975 10.1952262 10.9985849 2.25151586 10.9617782 2.26133655 8.78036639 10.2038193 8.8184 10.234509 2.41034958 0.732991724 2.36618151 0.742812414 0.184769748 12.5300952 0.239979832 12.4441641 18.4040975"></polygon>
            </g>
            <path d="M61.5458855,133.17936 L56.0880372,131.889897 L56.9362993,140.490402 L61.5458855,133.17936 Z M55.1943545,143.118402 L53.080451,123.953141 L55.3809476,124.496654 L55.8547959,129.595612 L62.7796097,131.231057 L65.4888924,126.882956 L67.7881614,127.426469 L57.316851,143.6202 L55.1943545,143.118402 Z" id="Fill-22" fill="#000000"></path>
            <path d="M35.0999959,130.555408 C35.0337062,132.507392 35.7125614,133.863106 37.25932,134.598013 C39.0650993,135.456837 40.6499131,135.087543 41.4183821,133.470501 C42.2543683,131.712366 40.8598303,130.476887 38.947251,128.877022 C36.7498717,127.029324 34.9477752,125.25524 36.3079407,122.395358 C38.0118303,118.809156 41.0451959,118.237425 44.2332372,119.751408 C47.3292097,121.223677 48.9312097,124.023442 48.0362993,127.534803 L45.7578993,127.371627 C46.2194717,124.889627 45.6425062,122.834585 43.2978166,121.720568 C41.3042166,120.773408 39.4530166,121.100988 38.50532,123.093459 C37.6914303,124.804971 38.79012,125.757039 40.9629476,127.53603 C43.0068786,129.225459 45.0753614,131.098921 43.5163269,134.380854 C42.2801476,136.983089 39.5364924,138.094652 36.3238993,136.567173 C33.4623959,135.209005 32.6706028,132.704921 32.859651,130.611845 L35.0999959,130.555408 Z" id="Fill-24" fill="#000000"></path>
            <path d="M11.3803297,95.4836319 C13.3199159,94.9990101 15.102371,95.9032286 16.3017228,97.403716 C18.7605779,100.488119 18.5248814,105.021481 13.6120814,108.937716 C8.69928138,112.852724 4.22472966,112.069968 1.66644,108.865329 C-0.565311724,106.065565 -0.0865531034,102.961531 1.93037103,100.327397 L3.78034345,101.605817 C2.21026069,103.88538 1.94755724,105.720808 3.37278483,107.505934 C5.29886759,109.920455 8.26226069,110.180556 12.1402055,107.091245 C16.0169228,104.000708 16.4232538,101.05617 14.497171,98.6416487 C12.9430469,96.6933462 10.7014745,96.7546908 8.03761241,98.5766235 L10.581171,101.764086 L8.87482621,103.122254 L4.85939172,98.0907748 L12.02604,92.3795983 L13.2082055,93.8616824 L11.3803297,95.4836319 Z" id="Fill-26" fill="#000000"></path>
          </g>
          <polygon id="Fill-29" fill="#000000" points="6 126.745936 7.94500374 125.84407 11.7806478 134.064419 16.437784 131.906683 13.1409423 124.839856 15.085946 123.937989 18.3839959 131.004816 24.1042398 128.352197 20.1634931 119.901866 22.1097049 119 27 129.482842 10.7827763 137"></polygon>
          <polygon id="Fill-30" fill="#000000" points="0 106.50384 3.00201435 120 5.07113181 119.49616 3.82487725 113.880157 19 110.190748 18.4952789 107.926594 3.32015611 111.614753 2.07031348 106"></polygon>
          <polygon id="Fill-31" fill="#000000" points="2.3557974 65.1822012 9.76098786 66.8131347 7.92884052 74.4550515 0.523650063 72.8253216 0 75.0075228 18.1205525 79 18.6442026 76.8153916 10.1025534 74.9341007 11.9347007 67.2921839 20.4763499 69.1734748 21 66.99007 2.88070322 63"></polygon>
          <polygon id="Fill-32" fill="#000000" points="10.8968018 43 12.8157053 43.9329932 8.89034837 52.1293138 13.4825243 54.3626964 16.8561965 47.3181147 18.7750999 48.2511078 15.4014278 55.2956895 21.0442033 58.0414932 25.0810965 49.6155499 27 50.548543 21.9928612 61 6 53.2218343"></polygon>
          <path d="M27.8117176,39.9360098 L31.3670506,35.5598125 L23.0570856,32.6839209 L27.8117176,39.9360098 Z M21.383325,30 L40,36.2103118 L38.5015023,38.0529855 L33.5866299,36.3228042 L29.0761142,41.8740575 L31.9178768,46.1561035 L30.4206309,48 L20,31.7020583 L21.383325,30 Z" id="Fill-33" fill="#000000"></path>
          <g id="Group-40" transform="translate(31.000000, 0.000000)" fill="#000000">
            <path d="M3.6015614,18.6585667 L6.87191228,22.7432333 L10.1017368,20.1802333 C11.5852456,19.0044556 11.8959474,17.7333444 10.7624386,16.3180111 C9.62770175,14.9026778 8.31489474,14.9210111 6.83138596,16.0967889 L3.6015614,18.6585667 Z M10.6089298,22.5562333 L8.23138596,24.4409 L13.5734912,31.1130111 L11.7866491,32.5307889 L0.452789474,18.3774556 L5.43015789,14.4309 C7.95015789,12.4325667 10.6015614,12.3445667 12.6106842,14.8513444 C14.2784035,16.9340111 14.0831404,18.9726778 12.5419123,20.8231222 L22.2289298,24.2490111 L20.1154211,25.9246778 L10.6089298,22.5562333 Z" id="Fill-34"></path>
            <path d="M21.409807,6.57115556 L27.3855965,18.9681556 L29.2596316,18.0747111 C32.5140175,16.5200444 33.764193,13.9167111 31.5622632,9.34926667 C29.3603333,4.78182222 26.537,4.12304444 23.282614,5.67648889 L21.409807,6.57115556 Z M22.5494561,3.61826667 C26.8108596,1.58448889 31.1017368,2.77493333 33.764193,8.29815556 C36.4278772,13.8213778 34.6754211,17.8962667 30.4140175,19.9312667 L26.2680526,21.9100444 L18.4059474,5.59704444 L22.5494561,3.61826667 Z" id="Fill-36"></path>
            <path d="M66.0400877,0.0906888889 C67.6513158,0.0882444444 68.9248246,1.35324444 68.9272807,2.95557778 C68.9297368,4.55791111 67.6574561,5.82657778 66.0486842,5.82902222 C64.4374561,5.83146667 63.1639474,4.56646667 63.1602632,2.96413333 C63.157807,1.3618 64.4288596,0.0931333333 66.0400877,0.0906888889" id="Fill-38"></path>
          </g>
        </g>
      </g>
    </g>
  </g>
</svg>
