<?xml version="1.0" encoding="UTF-8"?>
<svg xmlns="http://www.w3.org/2000/svg" xmlns:xlink="http://www.w3.org/1999/xlink" width="591px" height="326px" viewBox="0 0 591 326">
  <!-- Generator: Sketch 51.2 (57519) - http://www.bohemiancoding.com/sketch -->
  <title>header copy 2</title>
  <desc>Created with Sketch.</desc>
  <defs>
    <polygon id="path-1" points="0 0 591 0 591 326 0 326"></polygon>
  </defs>
  <g id="home" stroke="none" stroke-width="1" fill="none" fill-rule="evenodd">
    <g id="header">
      <g id="Group-3">
        <mask id="mask-2" fill="white">
          <use xlink:href="#path-1"></use>
        </mask>
        <g id="Clip-2"></g>
        <path d="M0,274.573901 L0,296.053994 C0,296.392891 0.0123893167,296.733349 0.0356192856,297.072245 C0.26637031,300.295664 0.679863756,303.555004 1.45884205,306.670664 C4.06679322,317.098363 12.0594512,323.843494 23.174217,325.322456 C29.5763964,326.173601 35.9894165,326.261058 42.3993392,325.366185 C53.1548148,323.862234 60.8671645,318.183769 65.0748862,308.065292 C66.433065,304.796583 67.3049632,301.274872 68.0080569,297.789081 C69.3368111,291.221988 69.1091574,284.539327 68.70031,277.898833 C68.0901361,267.952148 64.9587363,258.87691 58.7346533,251.029195 C55.7782526,247.301336 52.7722947,243.609396 49.6563815,240.023654 C45.4176865,235.149481 40.9807625,230.453346 36.7730408,225.55731 C35.0122091,223.506752 33.4527039,221.235991 32.0914277,218.891828 C28.6750736,213.008775 28.599189,206.554127 29.3301587,200.022954 C29.4044946,199.371711 29.7018382,198.709536 30.0317038,198.128571 C31.138999,196.176403 32.847176,195.275282 35.0803504,195.340875 C37.3661793,195.40803 39.0371884,196.487188 39.6814329,198.665807 C40.2033328,200.430567 40.5115171,202.310895 40.5734637,204.15218 C40.7020028,208.073694 40.5037738,212.003018 40.6400562,215.922971 C40.7701441,219.582114 42.7059748,221.734184 46.2663547,221.882549 C51.1632321,222.087136 56.0786936,222.059025 60.980217,221.884111 C63.8189192,221.78416 65.5627155,220.014715 66.193022,217.156741 C66.447003,215.997934 66.5879315,214.792275 66.6034181,213.606919 C66.6483294,210.19453 66.7753199,206.771208 66.5461175,203.372874 C66.2596146,199.134328 65.8832891,194.873916 65.1383814,190.697839 C63.2861786,180.33417 56.1855514,174.401142 46.2245408,172.770691 C40.3287747,171.807101 34.4128759,171.819595 28.5155611,172.158492 C25.357834,172.339653 22.1226737,173.123643 19.1492377,174.244969 C8.42008939,178.294546 2.17742242,187.010584 1.70662838,199.944868 C1.60131919,202.841885 1.72676102,205.745149 1.67875242,208.643727 C1.44025807,222.928911 5.98558865,235.421223 15.444832,246.067566 C18.4910552,249.497134 21.636393,252.839245 24.6857136,256.267252 C28.0757404,260.073199 31.4766078,263.871336 34.7442901,267.785042 C37.8756899,271.533205 39.7046628,275.849838 39.8115207,280.848949 C39.8672726,283.400823 40.3489073,285.958944 40.2312088,288.4952 C40.105767,291.192315 39.7743527,293.944091 39.0356397,296.5272 C38.2272368,299.349253 35.867072,300.853204 33.359784,300.834463 C30.5427631,300.81416 28.1547223,299.139981 27.352514,296.244526 C26.8600387,294.467272 26.6432257,292.566642 26.6107037,290.715986 C26.5162352,285.257725 26.6525176,279.796341 26.5518544,274.339641 C26.4697752,269.952729 24.628413,268.058346 20.3912667,267.955271 C15.8258035,267.842826 11.2541456,267.824086 6.68713371,267.920913 C2.22852835,268.014617 0.11460118,270.05268 0,274.573901 Z M92.3933296,316.778208 C92.4227542,320.582593 94.4375669,323.136028 98.09861,323.304695 L113.136143,323.304695 C116.654709,323.148522 118.584345,320.891816 119.011777,317.341994 C119.213103,315.675623 119.1589,313.973333 119.160448,312.288222 C119.200714,278.194001 119.188324,207.634847 119.302926,206.463546 C119.573942,203.653987 121.238756,201.740862 123.978344,201.29733 C125.61838,201.033396 127.312619,201.111483 128.983628,201.049014 C130.320125,201.0006 131.662818,201.047452 132.990023,200.925637 C135.42917,200.700747 137.005711,199.263951 137.674734,196.968202 C138.046413,195.695389 138.153271,194.316377 138.185793,192.979533 C138.264775,189.606187 138.244642,186.229717 138.238448,182.85481 C138.23535,181.842806 138.244642,180.815185 138.069643,179.826607 C137.533805,176.798404 135.582488,174.986792 132.561043,174.646334 C131.692242,174.646334 87.7132652,174.686939 79.2668485,174.647896 C78.67371,174.646334 78.0821201,174.740038 77.5292468,174.960243 C75.5996108,175.734863 73.954929,177.621438 73.9100177,179.642322 C73.9100177,185.053731 73.9022744,190.184028 73.9022744,195.634481 C73.9673183,198.456535 75.8969544,200.419635 78.659772,200.824124 C79.8119784,200.992791 80.9951582,200.963118 82.1659486,200.99123 C83.6712506,201.027149 85.1858446,200.941254 86.6834032,201.064631 C90.0176781,201.339496 91.8853676,203.091762 92.2616931,206.427627 C92.4877981,208.432893 92.3422237,309.859725 92.3933296,316.778208 Z M215.001105,248.820903 L215.001105,242.741072 C214.999557,231.085849 215.058406,219.432188 214.968583,207.778527 C214.923672,202.00948 214.019252,196.337261 212.106651,190.877439 C208.632997,180.985414 201.894757,174.835304 191.548129,172.983087 C183.553922,171.555662 175.514804,171.58065 167.582544,173.217347 C160.963552,174.583865 155.546323,178.063409 151.67621,183.849634 C148.315608,188.878419 146.629112,194.455372 145.817612,200.374345 C144.992174,206.413571 145.015404,212.488717 145.027793,218.57011 C145.06651,242.384996 145.026244,266.19832 145.063412,290.011644 C145.069607,294.581279 145.63487,299.125925 146.903226,303.514399 C150.036174,314.35752 156.537468,321.961604 167.800906,324.554083 C175.90197,326.420355 184.133123,326.535924 192.201665,324.572824 C203.136786,321.914752 209.602461,314.320038 212.963063,303.847048 C214.514825,299.005672 215.018141,293.950338 215.011946,288.849714 C214.996459,275.507818 215.0073,262.162799 215.0073,248.820903 L215.001105,248.820903 Z M187.063196,286.667971 C187.057001,288.857523 187.070939,291.093926 186.666738,293.227255 C185.892406,297.314314 183.062996,299.19308 178.971424,298.696449 C176.406835,298.384102 174.467907,297.098794 173.792689,294.576594 C173.23517,292.486993 172.900658,290.267769 172.894464,288.106329 C172.840261,271.045943 172.894464,253.982435 172.908402,236.92205 C172.916145,227.798398 172.931632,218.676308 172.891366,209.55578 C172.880526,207.16008 173.105082,204.81904 174.017246,202.606063 C175.226753,199.665317 178.240454,198.02862 181.354818,198.6049 C183.673169,199.034377 185.238869,200.369659 186.082891,202.651353 C187.109656,205.418746 187.069391,208.295461 187.086426,211.156558 C187.132886,218.927748 187.086426,226.698937 187.080231,234.470127 C187.077134,239.367726 187.080231,244.266886 187.080231,249.166046 C187.080231,261.667729 187.095718,274.16785 187.063196,286.667971 Z M225.482467,317.434136 C225.655918,321.02144 227.399714,323.100108 230.926023,323.295325 L246.697624,323.295325 C249.675706,323.200059 251.599147,320.974588 251.950694,317.962002 C252.085428,316.795387 252.028127,315.603784 252.028127,314.423113 C252.03587,307.003313 252.020384,299.581952 252.043614,292.162152 C252.069941,283.393015 252.043614,274.622315 252.21087,265.854739 C252.303789,261.114875 255.432092,258.890966 259.977423,259.979494 C262.11458,260.490182 263.626076,261.76768 264.168109,263.885392 C264.539788,265.323749 264.629611,266.868304 264.623416,268.366007 C264.567664,282.86671 264.426736,297.368974 264.414347,311.871239 C264.411249,314.207593 264.465452,315.666253 264.858813,317.979182 C265.275404,320.440475 267.403269,322.584736 269.659674,323.128219 C270.578032,323.30001 272.651694,323.295325 272.651694,323.295325 L284.889241,323.295325 C289.299838,323.295325 291.289872,321.646134 291.331686,314.733898 C291.399827,303.942314 291.455579,293.149168 291.478809,282.357585 C291.494296,275.106453 291.415314,267.856882 291.435446,260.60575 C291.450933,255.348952 290.123727,250.724657 286.369764,246.790649 C283.851636,244.152879 283.828406,241.852445 286.193217,239.135027 C290.569743,234.107805 291.831905,228.216943 291.77925,221.788845 C291.725047,215.549716 291.884559,209.310588 291.794737,203.074583 C291.743631,199.54194 291.649162,195.974939 291.107129,192.498519 C289.721075,183.627868 284.677074,177.846328 275.96119,175.66927 C273.396601,175.028959 270.684889,174.782205 268.035124,174.73223 C261.515246,174.608853 254.990723,174.704118 248.467747,174.708804 C243.115562,174.710365 237.76028,174.854045 232.415839,174.663513 C227.882897,174.502655 225.360123,176.737496 225.482467,181.47736 C225.584679,185.352023 225.482467,315.422623 225.482467,317.434136 Z M252.176799,204.0085 C252.217064,202.720069 252.51131,201.294206 253.144714,200.19943 C254.775458,197.372691 257.581638,197.586649 260.267023,197.973959 C262.563692,198.306608 263.819659,199.837108 264.240896,202.507674 C264.370984,203.335393 264.432931,204.180291 264.432931,205.020504 C264.440674,212.418439 264.453063,219.819498 264.400409,227.217433 C264.392665,228.548031 264.242445,229.914548 263.911031,231.196732 C262.853293,235.269735 256.285406,236.253628 253.915949,233.767347 C252.653788,232.446119 252.14118,230.979651 252.133436,229.233632 C252.119498,225.700989 252.099366,222.168346 252.083879,218.637265 C252.080782,217.79549 252.083879,216.956839 252.083879,216.115064 C252.099366,216.115064 252.057552,208.040898 252.176799,204.0085 Z M301.391811,248.861508 C301.391811,270.527448 301.390262,292.193387 301.39336,313.860888 C301.39336,315.214912 301.312829,316.581429 301.449112,317.921397 C301.763491,320.987082 303.52742,323.189127 306.579837,323.304695 L322.69679,323.304695 C325.966021,323.140713 327.658711,320.791865 327.945214,317.384161 C328.086143,315.702173 328.04278,314.001444 328.04278,312.308524 C328.050523,299.441396 328.047426,286.575829 328.048975,273.710262 C328.055169,248.48513 328.064461,223.259998 328.064461,198.033305 C328.064461,192.278314 328.143443,186.5202 327.980833,180.768333 C327.86933,176.921781 325.773986,174.747847 321.972015,174.644773 C316.929563,174.663513 311.927376,174.644773 306.864792,174.644773 C303.971886,174.719736 302.130524,176.489181 301.617916,179.300302 C301.3469,180.78395 301.377873,182.33319 301.376324,183.85432 C301.362386,205.523382 301.368581,227.190884 301.368581,248.859946 C301.376324,248.859946 301.384068,248.859946 301.391811,248.861508 Z M339.707322,303.455053 C339.70887,307.831032 339.804888,312.157036 339.945816,316.529892 C340.094488,321.121391 341.802665,322.828366 346.340252,323.260967 C347.332946,323.354671 348.341127,323.323436 349.341564,323.320313 C357.685769,323.317189 366.029974,323.310942 374.375727,323.29064 C379.715523,323.278146 385.061513,323.376535 390.395114,323.171948 C394.595092,323.009528 396.439552,321.029249 396.578932,316.846924 C396.715214,312.811403 396.468976,308.758702 396.707471,304.73099 C397.077602,298.466874 393.834698,296.236717 388.722556,296.595916 C383.576344,296.958238 378.375928,296.719293 373.208034,296.550626 C368.769561,296.406946 366.578201,294.268932 366.545679,290.075675 C366.488379,282.167053 366.502317,274.255307 366.657183,266.348247 C366.745457,261.959773 368.543456,260.287156 372.841001,260.180958 C376.176824,260.099748 379.523488,260.25436 382.854666,260.095063 C386.871902,259.904531 389.060165,257.764955 389.19335,253.787218 C389.352863,249.078589 389.388482,244.355905 389.218129,239.6504 C389.060165,235.354069 386.853318,233.316005 382.530995,233.172326 C379.362427,233.06769 376.183019,233.237919 373.019097,233.10361 C368.610049,232.917763 366.629307,230.929675 366.551874,226.508406 C366.44037,220.113104 366.41714,213.714679 366.503865,207.319377 C366.562714,203.182343 368.586819,201.191132 372.698524,201.067755 C376.869077,200.942816 381.042728,200.978736 385.214831,200.933445 C386.717035,200.914705 388.21924,200.888155 389.719896,200.827247 C392.385148,200.714803 394.101068,199.293624 394.797967,196.754245 C395.149514,195.475184 395.322965,194.114914 395.352389,192.78744 C395.431371,189.421902 395.403495,186.053241 395.378717,182.687704 C395.370973,181.681947 395.330708,180.655888 395.126284,179.67668 C394.537792,176.840571 392.741341,174.977422 389.927417,174.627593 C389.091138,174.627593 364.493699,174.683816 352.979377,174.627593 C350.643991,174.618223 348.294667,174.608853 345.965475,174.738477 C342.26107,174.944626 340.156434,177.012362 339.786304,180.715234 C339.654667,182.048955 339.730552,183.407664 339.729003,184.753878 C339.707322,194.694317 339.742941,204.61133 339.74449,214.542398 C339.749136,225.985225 339.707322,285.278028 339.707322,303.455053 Z M403.276906,274.573901 L403.276906,296.053994 C403.276906,296.392891 403.289295,296.733349 403.314074,297.072245 C403.543276,300.295664 403.95677,303.555004 404.735748,306.670664 C407.343699,317.098363 415.336357,323.843494 426.451123,325.322456 C432.854851,326.173601 439.267871,326.261058 445.676245,325.366185 C456.431721,323.862234 464.14407,318.183769 468.351792,308.065292 C469.709971,304.796583 470.583418,301.274872 471.286512,297.789081 C472.615266,291.221988 472.386063,284.539327 471.977216,277.898833 C471.367042,267.952148 468.237191,258.87691 462.013108,251.029195 C459.056707,247.301336 456.050749,243.609396 452.933287,240.023654 C448.696141,235.149481 444.257668,230.453346 440.049947,225.55731 C438.290664,223.506752 436.731158,221.235991 435.369882,218.891828 C431.95198,213.008775 431.877644,206.554127 432.608613,200.022954 C432.681401,199.371711 432.980293,198.709536 433.310158,198.128571 C434.415905,196.176403 436.124082,195.275282 438.357256,195.340875 C440.644634,195.40803 442.315643,196.487188 442.958339,198.665807 C443.481787,200.430567 443.788423,202.310895 443.85037,204.15218 C443.980457,208.073694 443.78068,212.003018 443.918511,215.922971 C444.04705,219.582114 445.984429,221.734184 449.544809,221.882549 C454.441687,222.087136 459.355599,222.059025 464.257123,221.884111 C467.095825,221.78416 468.84117,220.014715 469.469928,217.156741 C469.723909,215.997934 469.866386,214.792275 469.881873,213.606919 C469.925235,210.19453 470.052226,206.771208 469.826121,203.372874 C469.538069,199.134328 469.160195,194.873916 468.415287,190.697839 C466.563085,180.33417 459.464006,174.401142 449.502995,172.770691 C443.605681,171.807101 437.691331,171.819595 431.794016,172.158492 C428.63474,172.339653 425.401128,173.123643 422.426144,174.244969 C411.696995,178.294546 405.454328,187.010584 404.983534,199.944868 C404.878225,202.841885 405.003667,205.745149 404.955658,208.643727 C404.717164,222.928911 409.264043,235.421223 418.721738,246.067566 C421.76951,249.497134 424.914848,252.839245 427.964168,256.267252 C431.352646,260.073199 434.753514,263.871336 438.021196,267.785042 C441.152596,271.533205 442.983117,275.849838 443.089975,280.848949 C443.145727,283.400823 443.627362,285.958944 443.509663,288.4952 C443.384222,291.192315 443.051259,293.944091 442.312546,296.5272 C441.504143,299.349253 439.143978,300.853204 436.63669,300.834463 C433.819669,300.81416 431.431628,299.139981 430.62942,296.244526 C430.136945,294.467272 429.920132,292.566642 429.889158,290.715986 C429.793141,285.257725 429.930972,279.796341 429.82876,274.339641 C429.74823,269.952729 427.905319,268.058346 423.668173,267.955271 C419.102709,267.842826 414.5326,267.824086 409.96404,267.920913 C405.506983,268.014617 403.393056,270.05268 403.276906,274.573901 Z M0,102.625397 C0.11460118,98.1026146 2.22852835,96.0661131 6.68713371,95.9708473 C11.2541456,95.8755815 15.8258035,95.8927606 20.3912667,96.0052055 C24.628413,96.1098417 26.4697752,98.0026636 26.5518544,102.391137 C26.6525176,107.847836 26.5162352,113.309221 26.6107037,118.765921 C26.6432257,120.618137 26.8600387,122.518768 27.352514,124.296022 C28.1547223,127.189915 30.5427631,128.865656 33.359784,128.885959 C35.867072,128.903138 38.2272368,127.400749 39.0356397,124.578696 C39.7743527,121.995587 40.105767,119.243811 40.2312088,116.546696 C40.3489073,114.01044 39.8672726,111.452319 39.8115207,108.898884 C39.7046628,103.901334 37.8756899,99.5831387 34.7442901,95.8349764 C31.4766078,91.9228321 28.0757404,88.1246944 24.6857136,84.3171862 C21.636393,80.8891795 18.4910552,77.5486299 15.444832,74.1190615 C5.98558865,63.472719 1.44025807,50.9788449 1.67875242,36.6952234 C1.72676102,33.7966446 1.60131919,30.8933806 1.70662838,27.9963635 C2.17742242,15.0620803 8.42008939,6.34604142 19.1492377,2.29646447 C22.1226737,1.17513927 25.357834,0.391148671 28.5155611,0.208425762 C34.4128759,-0.128908839 40.3287747,-0.141402713 46.2245408,0.822187328 C56.1855514,2.4526379 63.2861786,8.38410463 65.1383814,18.7477732 C65.8832891,22.9254124 66.2596146,27.1842617 66.5461175,31.4243702 C66.7753199,34.8211422 66.6483294,38.2460255 66.6034181,41.6568531 C66.5879315,42.8437712 66.447003,44.04943 66.193022,45.2066751 C65.5627155,48.0662105 63.8189192,49.8356554 60.980217,49.9356064 C56.0786936,50.1089589 51.1632321,50.1370702 46.2663547,49.9340447 C42.7059748,49.78568 40.7701441,47.6336101 40.6400562,43.972905 C40.5037738,40.0545138 40.7020028,36.1236286 40.5734637,32.2036756 C40.5115171,30.3623909 40.2033328,28.4805011 39.6814329,26.7157414 C39.0371884,24.5386839 37.3661793,23.4579637 35.0803504,23.3923709 C32.847176,23.3267781 31.138999,24.2278987 30.0317038,26.1785048 C29.7018382,26.75947 29.4044946,27.423207 29.3301587,28.0744502 C28.599189,34.6056229 28.6750736,41.0602706 32.0914277,46.9417619 C33.4527039,49.285925 35.0122091,51.5582483 36.7730408,53.6072437 C40.9807625,58.5032806 45.4176865,63.1994155 49.6563815,68.0735882 C52.7722947,71.6608918 55.7782526,75.3528316 58.7346533,79.0806913 C64.9587363,86.9284059 68.0901361,96.0036437 68.70031,105.950329 C69.1091574,112.589262 69.3368111,119.273484 68.0080569,125.840577 C67.3049632,129.326368 66.433065,132.848078 65.0748862,136.115227 C60.8671645,146.235265 53.1548148,151.912169 42.3993392,153.41768 C35.9894165,154.312554 29.5763964,154.225097 23.174217,153.37239 C12.0594512,151.89499 4.06679322,145.148298 1.45884205,134.720598 C0.679863756,131.6065 0.26637031,128.34716 0.0356192856,125.123741 C0.0123893167,124.784844 0,124.444386 0,124.10549 L0,102.625397 Z M92.3933296,144.828142 C92.3422237,137.911221 92.4877981,36.4843892 92.2616931,34.4791224 C91.8853676,31.143258 90.0176781,29.3909922 86.6834032,29.116127 C85.1858446,28.9911882 83.6712506,29.0786454 82.1659486,29.0411637 C80.9951582,29.0130525 79.8119784,29.0442872 78.659772,28.8756199 C75.8969544,28.4711307 73.9673183,26.5080308 73.9022744,23.6844152 C73.9022744,18.2355244 73.9100177,13.1052273 73.9100177,7.69381809 C73.954929,5.67293395 75.5996108,3.78479723 77.5292468,3.01173876 C78.0821201,2.79153423 78.67371,2.69783018 79.2668485,2.69939191 C87.7132652,2.73687353 131.692242,2.69783018 132.561043,2.69783018 C135.582488,3.03828825 137.533805,4.84833826 138.069643,7.87810273 C138.244642,8.86511878 138.23535,9.89273993 138.238448,10.9047437 C138.244642,14.2812132 138.264775,17.656121 138.185793,21.0310287 C138.153271,22.3663115 138.046413,23.7468846 137.674734,25.019698 C137.005711,27.3154474 135.42917,28.7506812 132.990023,28.9755709 C131.662818,29.0973862 130.320125,29.0520959 128.983628,29.1005096 C127.312619,29.1614173 125.61838,29.0833306 123.978344,29.3488254 C121.238756,29.7907962 119.573942,31.7039207 119.302926,34.5150423 C119.188324,35.6847813 119.200714,106.245497 119.160448,140.338156 C119.1589,142.023267 119.213103,143.727119 119.011777,145.39349 C118.584345,148.943312 116.654709,151.200018 113.136143,151.356191 L98.09861,151.356191 C94.4375669,151.187524 92.4227542,148.632527 92.3933296,144.828142 Z M147.013181,145.485632 C147.013181,143.474118 147.113844,13.4035186 147.013181,9.52885585 C146.889288,4.78899236 149.413611,2.55258889 153.946552,2.71500925 C159.290994,2.90554083 164.646276,2.76186128 169.998461,2.75873781 C176.519888,2.75561435 183.044412,2.65878682 189.564289,2.78372556 C192.215603,2.83370106 194.927315,3.08045507 197.491904,3.72076612 C206.206239,5.89626195 211.25024,11.6778022 212.637843,20.5500145 C213.179876,24.0248733 213.272796,27.5934361 213.32545,31.126079 C213.413724,37.3620839 213.25576,43.6012123 213.308415,49.8387789 C213.362618,56.2684389 212.098908,62.1577388 207.722382,67.1865231 C205.35912,69.9039407 205.38235,72.2028136 207.89893,74.8421445 C211.654441,78.7761531 212.981647,83.4004482 212.964611,88.6572458 C212.946027,95.9068162 213.025009,103.157948 213.009523,110.407519 C212.984744,121.200664 212.928992,131.992248 212.8624,142.785394 C212.820586,149.696068 210.829003,151.345259 206.419955,151.345259 L194.182407,151.345259 C194.182407,151.345259 192.107197,151.351506 191.18729,151.179715 C188.932434,150.636232 186.806118,148.490409 186.387978,146.030677 C185.994618,143.716187 185.940414,142.257527 185.94506,139.922735 C185.95745,125.418909 186.098378,110.916644 186.15413,96.4159416 C186.160325,94.9198002 186.070502,93.375245 185.698823,91.9368877 C185.15679,89.8191761 183.645293,88.5401157 181.506588,88.0294286 C176.961257,86.9424615 173.832955,89.1663711 173.741583,93.9062346 C173.572779,102.672249 173.600655,111.44451 173.572779,120.212087 C173.551098,127.633448 173.566584,135.053247 173.558841,142.474608 C173.558841,143.653718 173.616141,144.846883 173.481408,146.011937 C173.129861,149.026084 171.206419,151.251555 168.228337,151.345259 L152.456737,151.345259 C148.930428,151.151604 147.185083,149.071374 147.013181,145.485632 Z M173.707513,32.0584343 C173.588266,36.0923939 173.630079,44.1649983 173.614593,44.1649983 C173.614593,45.0067731 173.609947,45.8469861 173.614593,46.6871992 C173.630079,50.2198421 173.650212,53.752485 173.66415,57.2835661 C173.671893,59.0311468 174.184501,60.4976153 175.443566,61.8172807 C177.81612,64.3035617 184.384006,63.3196691 185.440196,59.2466661 C185.77161,57.9644823 185.923379,56.5979648 185.931122,55.2689289 C185.982228,47.869432 185.971388,40.4699351 185.960547,33.0704381 C185.960547,32.2317868 185.901698,31.3853269 185.770061,30.5591694 C185.348824,27.8886038 184.092857,26.3565425 181.797737,26.0254549 C179.110803,25.6381448 176.306172,25.4241872 174.675428,28.2509262 C174.040476,29.3441402 173.747778,30.7715653 173.707513,32.0584343 Z M292.279469,76.8708373 L292.285663,76.8708373 C292.285663,90.2142948 292.274823,103.557752 292.291858,116.90121 C292.296504,122.001834 291.794737,127.055606 290.241426,131.898544 C286.882372,142.369972 280.415149,149.964686 269.480028,152.624319 C261.411486,154.587419 253.180334,154.470289 245.079269,152.605579 C233.81738,150.0131 227.314538,142.409016 224.181589,131.565895 C222.913233,127.17586 222.34797,122.632775 222.341776,118.06314 C222.304608,94.2482544 222.346422,70.4364921 222.306156,46.6216063 C222.293767,40.5386514 222.270537,34.4650668 223.095975,28.4242787 C223.907475,22.5068676 225.593971,16.9299145 228.954573,11.9011302 C232.824686,6.11490475 238.243464,2.63536081 244.860907,1.26884333 C252.793167,-0.367854181 260.832285,-0.394403663 268.826492,1.03458319 C279.17312,2.88523829 285.912908,9.03534782 289.385014,18.9289344 C291.297615,24.3887574 292.202035,30.0594145 292.246947,35.8300226 C292.336769,47.4836836 292.27792,59.1373447 292.279469,70.7925675 L292.279469,76.8708373 Z M264.341559,114.719467 C264.37563,102.217784 264.358595,89.7192251 264.358595,77.2175423 C264.358595,72.3168202 264.355497,67.4192215 264.358595,62.5200611 C264.364789,54.7488714 264.411249,46.9776817 264.364789,39.2064921 C264.347754,36.3469566 264.389568,33.4686804 263.361255,30.702849 C262.517232,28.4211552 260.951533,27.0843107 258.633182,26.6563955 C255.518817,26.0785538 252.505116,27.7152513 251.295609,30.655997 C250.383445,32.8705361 250.158889,35.2100141 250.172827,37.6057144 C250.209995,46.7278043 250.194508,55.8498941 250.186765,64.9735457 C250.174376,82.0339308 250.118624,99.0974393 250.174376,116.157824 C250.179022,118.319265 250.513533,120.536927 251.071052,122.626528 C251.74627,125.148729 253.685198,126.435598 256.249787,126.747944 C260.342907,127.244576 263.170769,125.36581 263.94665,121.278751 C264.349303,119.145422 264.335365,116.909019 264.341559,114.719467 Z M302.759282,142.215361 L302.759282,9.03534782 C303.010166,5.43711208 304.828298,3.33970296 308.379386,2.85556534 C309.528495,2.69939191 310.703931,2.72125619 311.868527,2.71969446 C315.029351,2.70876232 318.196371,2.8446332 321.351,2.70876232 C325.764694,2.52135421 328.281274,4.27205832 329.390118,9.15872483 C330.427723,13.7314827 331.477718,18.2995555 332.535456,22.8676282 C334.957567,33.3093835 337.381228,43.7511388 339.829666,54.1850854 C340.096037,55.3189044 340.453778,56.4542853 340.93851,57.5084559 C341.392269,58.4954719 342.350892,59.0748753 343.391595,58.7578433 C344.103981,58.542324 345.040923,57.9176303 345.211276,57.2898131 C345.601539,55.8655114 345.696008,54.3272032 345.7053,52.8326235 C345.756406,41.422593 345.754857,30.0110007 345.773441,18.6025319 C345.779636,15.4150323 345.713043,12.2212857 345.83229,9.03847129 C345.987157,4.91705457 347.94312,2.91959644 352.043984,2.76342302 C355.533125,2.63379907 359.031559,2.75717608 362.525346,2.71657099 C366.934394,2.66503376 369.399868,5.86034206 369.337921,9.64130071 C369.169117,19.8737836 369.20009,30.10939 369.18925,40.3449963 C369.175312,53.2605387 369.206285,66.1776428 369.20009,79.0931851 C369.192347,95.3586475 369.162922,111.622548 369.144338,127.88801 C369.141241,131.911038 369.164471,135.935627 369.136595,139.958655 C369.125754,141.803063 369.11956,143.656841 368.924428,145.487194 C368.582173,148.738725 367.166694,150.311391 364.089497,151.070394 C363.446801,151.229691 362.776229,151.353068 362.116498,151.356191 L352.112125,151.356191 C348.046881,151.137548 346.453305,149.766346 345.386275,145.81672 C343.419471,138.539038 341.626117,131.217628 339.773914,123.910273 C337.097822,113.359197 334.446508,102.800311 331.747186,92.2554815 C331.504045,91.3075088 331.17418,90.2658321 330.553165,89.5692986 C330.091663,89.0523645 329.029279,88.7165917 328.350964,88.861833 C327.691233,89.0039508 326.961812,89.7582684 326.666017,90.4266907 C326.35009,91.1388415 326.469337,92.0665117 326.469337,92.9004778 C326.446107,109.342416 326.415134,125.784354 326.418231,142.226293 C326.41978,149.08543 324.312047,151.378056 317.504117,151.356191 C314.355682,151.345259 311.369857,151.356191 308.1889,151.356191 C308.174962,151.356191 308.162573,151.356191 308.148635,151.353068 C304.753962,150.94077 302.971449,148.332674 302.793352,144.732876 C302.751539,143.894225 302.757733,143.055574 302.759282,142.215361 Z M379.837867,122.857664 C379.836319,107.989954 379.845611,51.0756725 379.836319,36.703032 C379.823929,31.5680498 380.362865,26.5174012 381.621929,21.5385923 C382.767941,17.0126864 384.79824,12.9459304 387.681853,9.30240438 C390.388919,5.87908287 393.837795,3.45214783 397.935562,2.13248237 C400.651919,1.25947292 403.487524,0.448932839 406.307643,0.281827273 C412.70053,-0.102359356 419.104258,-0.235106769 425.497146,0.823749062 C435.916561,2.55415063 442.555686,8.52153725 445.552352,18.5978467 C446.467613,21.6760249 447.158317,24.9010062 447.353449,28.0947528 C447.703447,33.8653609 447.499023,39.6703271 447.725128,45.4534291 C447.858314,48.8673802 445.882218,51.5223285 441.838654,51.5785509 C436.943326,51.6488289 432.038705,51.7081748 427.155765,51.4395565 C423.030123,51.2131051 421.58367,49.4249193 421.470618,45.2066751 C421.369954,41.4631981 421.390087,37.7165976 421.261548,33.9746823 C421.215088,32.6300291 421.043186,31.249456 420.663763,29.9657104 C419.700494,26.6985623 417.962892,25.419502 414.806714,25.4038846 C411.642792,25.389829 409.699218,26.659519 408.842806,29.8345247 C408.320907,31.7710752 408.176881,33.8575522 408.170686,35.8768746 C408.136615,48.6487374 408.193916,61.4221619 408.209403,74.1940248 C408.224889,88.5010723 408.209403,102.806558 408.266703,117.112044 C408.272898,118.964261 408.4448,120.857083 408.852098,122.660886 C409.52267,125.63599 411.523545,127.305484 414.54499,127.642818 C417.8963,128.019196 420.813984,126.56366 422.068402,123.660396 C422.661541,122.284508 423.112202,120.721212 423.130786,119.239126 C423.243839,110.213864 423.26552,101.18704 423.202025,92.1617775 C423.178795,88.7134682 421.958447,87.3110308 418.689216,86.2943418 C418.206033,86.1444153 417.702717,86.0600817 417.207144,85.9570072 C414.687467,85.429141 413.513579,83.7221655 413.312252,81.2764896 C413.189908,79.752237 413.227076,78.2139287 413.223979,76.6803057 C413.211589,73.275725 413.10628,69.8648974 413.24566,66.4634401 C413.394332,62.8339697 415.057597,61.1769697 418.636561,61.145735 C426.740723,61.0738952 434.847982,61.0723335 442.953693,61.1738462 C447.094822,61.2269452 448.347692,62.432604 448.919149,66.5259095 C449.129767,68.0345448 449.151448,69.5791 449.151448,71.1080378 C449.137511,94.9479114 449.112732,118.787785 449.067821,142.62922 C449.064723,144.155035 448.962511,145.690219 448.789061,147.206663 C448.499461,149.710123 447.048362,151.393673 444.603021,151.627933 C441.767416,151.898113 438.882254,151.852823 436.035808,151.682594 C434.298206,151.577957 432.874984,150.564392 432.003085,148.937065 C431.522999,148.043753 431.134285,147.072354 430.516367,146.28524 C428.723014,143.995738 426.122806,143.692761 423.827685,145.504373 C422.636762,146.44766 421.6069,147.597097 420.434561,148.570057 C409.118469,157.984191 391.914354,154.898205 384.457534,142.176317 C380.983879,136.249536 379.856451,129.574683 379.837867,122.857664 Z M459.10007,131.506549 C459.10007,113.329524 459.141884,54.0367206 459.137238,42.5923319 C459.135689,32.6612638 459.10007,22.7458129 459.121751,12.8038126 C459.1233,11.4575977 459.050513,10.1004506 459.179052,8.76516779 C459.549183,5.06385759 461.655366,2.99612142 465.358223,2.7899725 C467.688964,2.65878682 470.036739,2.66971896 472.372125,2.67908937 C483.887995,2.7353118 508.483886,2.67908937 509.320165,2.67908937 C512.135637,3.02735611 513.93054,4.89050508 514.519032,7.72817624 C514.723456,8.70738362 514.763721,9.73344303 514.771465,10.7391999 C514.797792,14.1047372 514.825668,17.4718363 514.745137,20.8373736 C514.715713,22.1664095 514.543811,23.52668 514.192264,24.8041787 C513.493816,27.3451203 511.777896,28.7647368 509.114193,28.8771816 C507.611988,28.939651 506.109784,28.9662005 504.607579,28.9833796 C500.435476,29.0302316 496.261825,28.9943117 492.09282,29.1176887 C487.979567,29.2426275 485.957011,31.2338386 485.898162,35.3708727 C485.809888,41.7661745 485.834667,48.1645998 485.946171,54.5599016 C486.023604,58.9811713 488.004346,60.9676973 492.411845,61.1551054 C495.577316,61.2894145 498.755175,61.1176238 501.923743,61.22226 C506.247615,61.3675012 508.454462,63.4040027 508.610877,67.7018954 C508.78123,72.4074008 508.745611,77.1300852 508.587647,81.8371522 C508.454462,85.8164511 506.26465,87.9560271 502.247414,88.1465587 C498.916237,88.3042938 495.57267,88.1496821 492.233749,88.232454 C487.936205,88.338652 486.138205,90.0112694 486.05148,94.3981809 C485.895065,102.306803 485.882675,110.216987 485.939976,118.127171 C485.970949,122.320428 488.16231,124.458442 492.600782,124.602122 C497.770225,124.770789 502.969092,125.008172 508.116853,124.64585 C513.227446,124.288213 516.47035,126.516808 516.100219,132.782486 C515.861724,136.808637 516.106413,140.861337 515.97168,144.89842 C515.833849,149.079183 513.989389,151.061023 509.789411,151.223444 C504.454261,151.428031 499.108271,151.329642 493.768475,151.342136 C485.422722,151.360876 477.078517,151.367123 468.735861,151.371809 C467.733875,151.37337 466.728792,151.406167 465.733,151.310901 C461.195413,150.878301 459.487236,149.171325 459.338564,144.579826 C459.197636,140.208532 459.101618,135.880966 459.10007,131.506549 Z M524.659688,145.485632 C524.659688,143.474118 524.7619,13.4035186 524.659688,9.52885585 C524.537344,4.78899236 527.061667,2.55258889 531.593059,2.71500925 C536.937501,2.90554083 542.294332,2.76186128 547.646517,2.75873781 C554.167943,2.75561435 560.692467,2.65878682 567.212345,2.78372556 C569.86211,2.83370106 572.573822,3.08045507 575.13841,3.72076612 C583.854295,5.89626195 588.898295,11.6778022 590.28435,20.5500145 C590.827931,24.0248733 590.920851,27.5934361 590.971957,31.126079 C591.06178,37.3620839 590.902267,43.6012123 590.956471,49.8387789 C591.010674,56.2684389 589.746964,62.1577388 585.370437,67.1865231 C583.007175,69.9039407 583.030405,72.2028136 585.546985,74.8421445 C589.300948,78.7761531 590.628154,83.4004482 590.612667,88.6572458 C590.592534,95.9068162 590.673065,103.157948 590.65603,110.407519 C590.6328,121.200664 590.577048,131.992248 590.508907,142.785394 C590.467093,149.696068 588.477059,151.345259 584.066462,151.345259 L571.828914,151.345259 C571.828914,151.345259 569.755252,151.351506 568.835346,151.179715 C566.58049,150.636232 564.452625,148.490409 564.036034,146.030677 C563.642673,143.716187 563.58847,142.257527 563.593116,139.922735 C563.603957,125.418909 563.744885,110.916644 563.800637,96.4159416 C563.806832,94.9198002 563.717009,93.375245 563.346878,91.9368877 C562.803297,89.8191761 561.2918,88.5401157 559.154643,88.0294286 C554.609313,86.9424615 551.479461,89.1663711 551.389639,93.9062346 C551.219286,102.672249 551.247162,111.44451 551.219286,120.212087 C551.197604,127.633448 551.213091,135.053247 551.205348,142.474608 C551.205348,143.653718 551.264197,144.846883 551.127915,146.011937 C550.776368,149.026084 548.852926,151.251555 545.876393,151.345259 L530.103244,151.345259 C526.576935,151.151604 524.833138,149.071374 524.659688,145.485632 Z M551.355568,32.0584343 C551.236321,36.0923939 551.278135,44.1649983 551.2611,44.1649983 C551.2611,45.0067731 551.259551,45.8469861 551.2611,46.6871992 C551.278135,50.2198421 551.296719,53.752485 551.310657,57.2835661 C551.3184,59.0311468 551.831008,60.4976153 553.091621,61.8172807 C555.462627,64.3035617 562.030513,63.3196691 563.088251,59.2466661 C563.419665,57.9644823 563.571435,56.5979648 563.579178,55.2689289 C563.630284,47.869432 563.617895,40.4699351 563.608603,33.0704381 C563.608603,32.2317868 563.548205,31.3853269 563.418117,30.5591694 C562.99688,27.8886038 561.740913,26.3565425 559.444243,26.0254549 C556.758859,25.6381448 553.952679,25.4241872 552.321935,28.2509262 C551.688531,29.3441402 551.394285,30.7715653 551.355568,32.0584343 Z" id="Fill-1" fill="#000000" mask="url(#mask-2)"></path>
      </g>
    </g>
  </g>
</svg>
